<svg width="512" height="512" viewBox="0 0 512 512" fill="none" xmlns="http://www.w3.org/2000/svg">
<path d="M0 30C0 13.4315 13.4315 0 30 0H482C498.569 0 512 13.4315 512 30V482C512 498.569 498.569 512 482 512H30C13.4315 512 0 498.569 0 482V30Z" fill="#D9D9D9"/>
<rect x="79" y="34" width="353" height="443" rx="30" fill="#BD2727"/>
<path d="M79 64C79 47.4315 92.4315 34 109 34H158V477H109C92.4315 477 79 463.569 79 447V64Z" fill="#775E5E"/>
<path d="M285.955 180.545V326H268.909L189.648 211.795H188.227V326H170.614V180.545H187.659L267.205 295.034H268.625V180.545H285.955ZM321.2 326V180.545H370.347C381.711 180.545 391.039 182.487 398.33 186.369C405.622 190.205 411.02 195.484 414.523 202.207C418.027 208.931 419.779 216.578 419.779 225.148C419.779 233.718 418.027 241.317 414.523 247.946C411.02 254.575 405.646 259.783 398.401 263.571C391.157 267.312 381.9 269.182 370.631 269.182H330.859V253.273H370.063C377.828 253.273 384.078 252.136 388.813 249.864C393.595 247.591 397.052 244.371 399.183 240.205C401.361 235.991 402.45 230.972 402.45 225.148C402.45 219.324 401.361 214.234 399.183 209.878C397.005 205.522 393.524 202.16 388.742 199.793C383.96 197.378 377.639 196.17 369.779 196.17H338.813V326H321.2ZM389.665 260.659L425.461 326H405.006L369.779 260.659H389.665Z" fill="white"/>
</svg>
