<svg width="309" height="383" viewBox="0 0 309 383" fill="none" xmlns="http://www.w3.org/2000/svg">
<rect x="278" y="291" width="31" height="29" fill="#D9D9D9"/>
<rect width="309" height="320" rx="30" fill="#BD2727"/>
<path d="M0 30C0 13.4315 13.4315 0 30 0H69V383H30C13.4315 383 0 369.569 0 353V30Z" fill="#775E5E"/>
<path d="M178.716 121.909V231H165.932L106.486 145.347H105.42V231H92.2102V121.909H104.994L164.653 207.776H165.719V121.909H178.716ZM205.15 231V121.909H242.01C250.533 121.909 257.529 123.365 262.998 126.277C268.466 129.153 272.515 133.113 275.143 138.156C277.77 143.198 279.084 148.933 279.084 155.361C279.084 161.788 277.77 167.488 275.143 172.46C272.515 177.431 268.484 181.337 263.051 184.178C257.618 186.984 250.675 188.386 242.224 188.386H212.394V176.455H241.797C247.621 176.455 252.309 175.602 255.86 173.898C259.447 172.193 262.039 169.778 263.637 166.653C265.27 163.493 266.087 159.729 266.087 155.361C266.087 150.993 265.27 147.175 263.637 143.908C262.003 140.641 259.393 138.12 255.807 136.344C252.22 134.533 247.479 133.628 241.584 133.628H218.36V231H205.15ZM256.499 181.994L283.346 231H268.005L241.584 181.994H256.499Z" fill="white"/>
<path d="M69 320H309V353C309 369.569 295.569 383 279 383H69V320Z" fill="#775E5E"/>
<path d="M19 345C19 331.193 30.1929 320 44 320H309V340C309 356.569 295.569 370 279 370H44C30.1929 370 19 358.807 19 345V345Z" fill="#D9D9D9"/>
<path d="M20 338H304V338C300.427 346.484 292.118 352 282.913 352H20V338Z" fill="#ACACAC"/>
<ellipse cx="20.5" cy="345" rx="1.5" ry="7" fill="#ACACAC"/>
<path d="M299.5 333C302.481 330.019 304.961 326.578 306.846 322.808L309 318.5L308 326.5L307.413 329.728C307.138 331.239 306.729 332.724 306.189 334.163V334.163C305.731 335.385 305.162 336.563 304.49 337.683L304 338.5L303.277 339.584C303.194 339.709 303 339.65 303 339.5V339.5L281 338L289.003 336.518C292.65 335.843 296.183 334.658 299.5 333V333V333Z" fill="#ACACAC"/>
</svg>
