<svg width="512" height="512" viewBox="0 0 512 512" fill="none" xmlns="http://www.w3.org/2000/svg">
<rect width="512" height="512" fill="#3C3C3C"/>
<g filter="url(#filter0_d_104_271)">
<rect x="379" y="355" width="31" height="29" fill="#D9D9D9"/>
<rect x="101" y="64" width="309" height="320" rx="30" fill="#BD2727"/>
<path d="M101 94C101 77.4315 114.431 64 131 64H170V447H131C114.431 447 101 433.569 101 417V94Z" fill="#775E5E"/>
<path d="M279.716 185.909V295H266.932L207.486 209.347H206.42V295H193.21V185.909H205.994L265.653 271.776H266.719V185.909H279.716ZM306.15 295V185.909H343.01C351.533 185.909 358.529 187.365 363.998 190.277C369.466 193.153 373.515 197.113 376.143 202.156C378.77 207.198 380.084 212.933 380.084 219.361C380.084 225.788 378.77 231.488 376.143 236.46C373.515 241.431 369.484 245.337 364.051 248.178C358.618 250.984 351.675 252.386 343.224 252.386H313.394V240.455H342.797C348.621 240.455 353.309 239.602 356.86 237.898C360.447 236.193 363.039 233.778 364.637 230.653C366.27 227.493 367.087 223.729 367.087 219.361C367.087 214.993 366.27 211.175 364.637 207.908C363.003 204.641 360.393 202.12 356.807 200.344C353.22 198.533 348.479 197.628 342.584 197.628H319.36V295H306.15ZM357.499 245.994L384.346 295H369.005L342.584 245.994H357.499Z" fill="white"/>
<path d="M170 384H410V417C410 433.569 396.569 447 380 447H170V384Z" fill="#775E5E"/>
<path d="M120 409C120 395.193 131.193 384 145 384H410V404C410 420.569 396.569 434 380 434H145C131.193 434 120 422.807 120 409V409Z" fill="#D9D9D9"/>
<path d="M121 402H405V402C401.427 410.484 393.118 416 383.913 416H121V402Z" fill="#ACACAC"/>
<path d="M400.5 397C403.481 394.019 405.961 390.578 407.846 386.808L410 382.5L409 390.5L408.413 393.728C408.138 395.239 407.729 396.724 407.189 398.163V398.163C406.731 399.385 406.162 400.563 405.49 401.683L405 402.5L404.277 403.584C404.194 403.709 404 403.65 404 403.5V403.5L382 402L390.003 400.518C393.65 399.843 397.183 398.658 400.5 397V397V397Z" fill="#ACACAC"/>
</g>
<defs>
<filter id="filter0_d_104_271" x="97" y="64" width="317" height="391" filterUnits="userSpaceOnUse" color-interpolation-filters="sRGB">
<feFlood flood-opacity="0" result="BackgroundImageFix"/>
<feColorMatrix in="SourceAlpha" type="matrix" values="0 0 0 0 0 0 0 0 0 0 0 0 0 0 0 0 0 0 127 0" result="hardAlpha"/>
<feOffset dy="4"/>
<feGaussianBlur stdDeviation="2"/>
<feComposite in2="hardAlpha" operator="out"/>
<feColorMatrix type="matrix" values="0 0 0 0 0 0 0 0 0 0 0 0 0 0 0 0 0 0 0.25 0"/>
<feBlend mode="normal" in2="BackgroundImageFix" result="effect1_dropShadow_104_271"/>
<feBlend mode="normal" in="SourceGraphic" in2="effect1_dropShadow_104_271" result="shape"/>
</filter>
</defs>
</svg>
