<svg width="100" height="100" viewBox="0 0 100 100" fill="none" xmlns="http://www.w3.org/2000/svg">
<rect width="100" height="100" rx="14" fill="#3F3F3F"/>
<path d="M85 50C85 42.321 82.4746 34.8552 77.813 28.753C73.1515 22.6508 66.6124 18.2511 59.2037 16.2318C51.795 14.2125 43.9278 14.6858 36.8146 17.5786C29.7014 20.4715 23.7369 25.6234 19.8405 32.2404C15.944 38.8574 14.3319 46.5721 15.2524 54.1957C16.1729 61.8193 19.5751 68.9286 24.9346 74.428C30.2941 79.9273 37.3134 83.5114 44.9107 84.628C52.5081 85.7446 60.2618 84.3316 66.9769 80.6069L63.5816 74.4855C58.2095 77.4653 52.0065 78.5957 45.9286 77.7024C39.8507 76.8091 34.2352 73.9418 29.9477 69.5424C25.6601 65.1429 22.9384 59.4555 22.2019 53.3566C21.4655 47.2577 22.7552 41.0859 25.8724 35.7923C28.9895 30.4987 33.7611 26.3772 39.4517 24.0629C45.1422 21.7486 51.436 21.37 57.363 22.9854C63.2899 24.6009 68.5212 28.1207 72.2504 33.0024C75.9797 37.8841 78 43.8568 78 50H85Z" fill="#D9D9D9"/>
<path d="M81.1209 69.3683L65.8197 87.7564L57.203 69.7981L81.1209 69.3683Z" fill="#D9D9D9"/>
<path d="M85 50C85 42.321 82.4746 34.8552 77.813 28.753C73.1515 22.6508 66.6124 18.2511 59.2037 16.2318C51.795 14.2125 43.9278 14.6858 36.8146 17.5786C29.7014 20.4715 23.7369 25.6234 19.8405 32.2404C15.944 38.8574 14.3319 46.5721 15.2524 54.1957C16.1729 61.8193 19.5751 68.9286 24.9346 74.428C30.2941 79.9273 37.3134 83.5114 44.9107 84.628C52.5081 85.7446 60.2618 84.3316 66.9769 80.6069L63.5816 74.4855C58.2095 77.4653 52.0065 78.5957 45.9286 77.7024C39.8507 76.8091 34.2352 73.9418 29.9477 69.5424C25.6601 65.1429 22.9384 59.4555 22.2019 53.3566C21.4655 47.2577 22.7552 41.0859 25.8724 35.7923C28.9895 30.4987 33.7611 26.3772 39.4517 24.0629C45.1422 21.7486 51.436 21.37 57.363 22.9854C63.2899 24.6009 68.5212 28.1207 72.2504 33.0024C75.9797 37.8841 78 43.8568 78 50H85Z" fill="#D9D9D9"/>
<path d="M81.1209 69.3683L65.8197 87.7564L57.203 69.7981L81.1209 69.3683Z" fill="#D9D9D9"/>
</svg>
