<svg width="100" height="100" viewBox="0 0 100 100" fill="none" xmlns="http://www.w3.org/2000/svg">
<path d="M0 14C0 6.26801 6.26801 0 14 0H86C93.732 0 100 6.26801 100 14V86C100 93.732 93.732 100 86 100H14C6.26801 100 0 93.732 0 86V14Z" fill="#3F3F3F"/>
<rect x="19" y="56" width="12" height="62" transform="rotate(-90 19 56)" fill="#D9D9D9"/>
<path d="M84.4749 52.4749C85.8417 51.108 85.8417 48.892 84.4749 47.5251L62.201 25.2513C60.8342 23.8844 58.6181 23.8844 57.2513 25.2513C55.8844 26.6181 55.8844 28.8342 57.2513 30.201L77.0503 50L57.2513 69.799C55.8844 71.1658 55.8844 73.3819 57.2513 74.7487C58.6181 76.1156 60.8342 76.1156 62.201 74.7487L84.4749 52.4749ZM81 53.5H82V46.5H81V53.5Z" fill="#D9D9D9"/>
<path d="M15.5251 47.5251C14.1583 48.892 14.1583 51.108 15.5251 52.4749L37.799 74.7487C39.1658 76.1156 41.3819 76.1156 42.7487 74.7487C44.1156 73.3819 44.1156 71.1658 42.7487 69.799L22.9497 50L42.7487 30.201C44.1156 28.8342 44.1156 26.6181 42.7487 25.2513C41.3819 23.8844 39.1658 23.8844 37.799 25.2513L15.5251 47.5251ZM19 46.5H18V53.5H19V46.5Z" fill="#D9D9D9"/>
</svg>
