<svg width="256" height="362" viewBox="0 0 256 362" fill="none" xmlns="http://www.w3.org/2000/svg">
<path d="M0 5.00001C0 2.23859 2.23858 0 5 0H251C253.761 0 256 2.23858 256 5V357C256 359.761 253.761 362 251 362H5C2.23858 362 0 359.761 0 357V5.00001Z" fill="#5B5B5B"/>
<path d="M124 110C124 107.791 125.791 106 128 106C130.209 106 132 107.791 132 110V252C132 254.209 130.209 256 128 256C125.791 256 124 254.209 124 252V110Z" fill="#D9D9D9"/>
<path d="M57 185C54.7909 185 53 183.209 53 181C53 178.791 54.7909 177 57 177H199C201.209 177 203 178.791 203 181C203 183.209 201.209 185 199 185H57Z" fill="#D9D9D9"/>
<path d="M124 177H132V185H124V177Z" fill="#D9D9D9"/>
</svg>
