<svg width="512" height="512" viewBox="0 0 512 512" fill="none" xmlns="http://www.w3.org/2000/svg">
<circle cx="256" cy="256" r="256" fill="black"/>
<rect x="375.903" y="352.642" width="30.0971" height="28.1671" fill="#D9D9D9"/>
<rect x="106" y="70" width="300" height="310.809" rx="30" fill="#BD2727"/>
<path d="M106 100C106 83.4315 119.431 70 136 70H172.99V442H136C119.431 442 106 428.569 106 412V100Z" fill="#775E5E"/>
<path d="M282.415 189.468V298.559H269.631L210.185 212.905H209.119V298.559H195.909V189.468H208.693L268.352 275.334H269.418V189.468H282.415ZM308.849 298.559V189.468H345.709C354.232 189.468 361.228 190.924 366.697 193.836C372.165 196.712 376.214 200.672 378.842 205.714C381.469 210.757 382.783 216.492 382.783 222.919C382.783 229.347 381.469 235.047 378.842 240.018C376.214 244.99 372.183 248.896 366.75 251.737C361.317 254.542 354.374 255.945 345.923 255.945H316.093V244.013H345.496C351.32 244.013 356.008 243.161 359.559 241.456C363.146 239.752 365.738 237.337 367.336 234.212C368.969 231.051 369.786 227.287 369.786 222.919C369.786 218.551 368.969 214.734 367.336 211.467C365.702 208.2 363.092 205.679 359.506 203.903C355.919 202.092 351.178 201.186 345.283 201.186H322.059V298.559H308.849ZM360.198 249.553L387.045 298.559H371.704L345.283 249.553H360.198Z" fill="white"/>
<path d="M172.99 380.81H406V412C406 428.569 392.568 442 376 442H172.99V380.81Z" fill="#775E5E"/>
<path d="M124.447 405.092C124.447 391.681 135.318 380.81 148.729 380.81H406V399.374C406 415.942 392.568 429.374 376 429.374H148.728C135.318 429.374 124.447 418.502 124.447 405.092V405.092Z" fill="#D9D9D9"/>
<path d="M125.417 398.292H401.146V398.292C397.677 406.532 389.608 411.89 380.667 411.89H125.417V398.292Z" fill="#ACACAC"/>
<path d="M396.777 393.436C399.67 390.541 402.078 387.199 403.908 383.537L406 379.353L405.029 387.123L404.459 390.258C404.192 391.726 403.795 393.168 403.271 394.565V394.565C402.826 395.753 402.274 396.897 401.622 397.984L401.146 398.778L400.444 399.831C400.363 399.952 400.175 399.895 400.175 399.749V399.749L378.815 398.292L386.585 396.853C390.126 396.197 393.556 395.047 396.777 393.436V393.436V393.436Z" fill="#ACACAC"/>
</svg>
