<svg width="512" height="512" viewBox="0 0 512 512" fill="none" xmlns="http://www.w3.org/2000/svg">
<circle cx="256" cy="256" r="256" fill="#3A3A3A"/>
<rect x="380.9" y="355" width="31.1003" height="29" fill="#D9D9D9"/>
<rect x="102" y="64" width="310" height="320" rx="30" fill="#BD2727"/>
<path d="M102 94C102 77.4315 115.431 64 132 64H171.223V447H132C115.431 447 102 433.569 102 417V94Z" fill="#775E5E"/>
<path d="M280.972 185.909V295H268.188L208.742 209.347H207.676V295H194.466V185.909H207.25L266.909 271.776H267.975V185.909H280.972ZM307.406 295V185.909H344.266C352.789 185.909 359.785 187.365 365.254 190.277C370.722 193.153 374.771 197.113 377.398 202.156C380.026 207.198 381.34 212.933 381.34 219.361C381.34 225.788 380.026 231.488 377.398 236.46C374.771 241.431 370.74 245.337 365.307 248.178C359.874 250.984 352.931 252.386 344.479 252.386H314.65V240.455H344.053C349.877 240.455 354.565 239.602 358.116 237.898C361.702 236.193 364.295 233.778 365.893 230.653C367.526 227.493 368.343 223.729 368.343 219.361C368.343 214.993 367.526 211.175 365.893 207.908C364.259 204.641 361.649 202.12 358.062 200.344C354.476 198.533 349.735 197.628 343.84 197.628H320.616V295H307.406ZM358.755 245.994L385.602 295H370.261L343.84 245.994H358.755Z" fill="white"/>
<path d="M171.223 384H412V417C412 433.569 398.568 447 382 447H171.223V384Z" fill="#775E5E"/>
<path d="M121.062 409C121.062 395.193 132.254 384 146.062 384H412V404C412 420.569 398.569 434 382 434H146.062C132.254 434 121.062 422.807 121.062 409V409Z" fill="#D9D9D9"/>
<path d="M122.065 402H406.984V402C403.399 410.485 395.082 416 385.87 416H122.065V402Z" fill="#ACACAC"/>
<path d="M402.469 397C405.459 394.02 407.949 390.576 409.842 386.802L412 382.5L410.997 390.5L410.408 393.726C410.132 395.239 409.721 396.724 409.179 398.163V398.163C408.72 399.385 408.15 400.563 407.476 401.681L406.984 402.5L406.258 403.584C406.175 403.709 405.98 403.65 405.98 403.5V403.5L383.909 402L391.941 400.517C395.598 399.842 399.141 398.658 402.469 397V397V397Z" fill="#ACACAC"/>
</svg>
