<svg width="100" height="100" viewBox="0 0 100 100" fill="none" xmlns="http://www.w3.org/2000/svg">
<rect width="100" height="100" rx="14" fill="#3F3F3F"/>
<path d="M46.1783 22.3673C47.3398 18.6085 52.6602 18.6085 53.8217 22.3672L58.5716 37.7382C59.0895 39.4143 60.639 40.5573 62.3933 40.5573H78.1748C82.0009 40.5573 83.6435 45.4132 80.6031 47.7359L67.4959 57.7489C66.1637 58.7666 65.6075 60.5069 66.1024 62.1085L71.0265 78.0433C72.1763 81.7642 67.8714 84.7671 64.7766 82.4029L52.4282 72.9696C50.9946 71.8744 49.0054 71.8744 47.5718 72.9696L35.2234 82.4029C32.1287 84.7671 27.8237 81.7641 28.9735 78.0433L33.8976 62.1085C34.3925 60.5069 33.8363 58.7666 32.5041 57.7489L19.3969 47.7359C16.3565 45.4132 17.999 40.5573 21.8252 40.5573H37.6067C39.3609 40.5573 40.9105 39.4143 41.4284 37.7382L46.1783 22.3673Z" fill="#D9D9D9"/>
</svg>
