<svg width="111" height="62" viewBox="0 0 111 62" fill="none" xmlns="http://www.w3.org/2000/svg">
<path d="M48.678 28.6638C50.5585 29.8387 50.5585 32.5773 48.678 33.7522L4.74687 61.2005C2.40062 62.6665 -0.510614 60.4454 0.283472 57.7952L7.99199 32.0691C8.1603 31.5074 8.1603 30.9086 7.99199 30.3469L0.283471 4.62076C-0.510616 1.9706 2.40062 -0.250493 4.74687 1.21545L48.678 28.6638Z" fill="#D9D9D9"/>
<path d="M109.428 28.6638C111.308 29.8387 111.308 32.5773 109.428 33.7522L65.4969 61.2005C63.1506 62.6665 60.2394 60.4454 61.0335 57.7952L68.742 32.0691C68.9103 31.5074 68.9103 30.9086 68.742 30.3469L61.0335 4.62076C60.2394 1.9706 63.1506 -0.250493 65.4969 1.21545L109.428 28.6638Z" fill="#D9D9D9"/>
<path d="M48.678 28.6638C50.5585 29.8387 50.5585 32.5773 48.678 33.7522L4.74687 61.2005C2.40062 62.6665 -0.510614 60.4454 0.283472 57.7952L7.99199 32.0691C8.1603 31.5074 8.1603 30.9086 7.99199 30.3469L0.283471 4.62076C-0.510616 1.9706 2.40062 -0.250493 4.74687 1.21545L48.678 28.6638Z" fill="#D9D9D9"/>
<path d="M109.428 28.6638C111.308 29.8387 111.308 32.5773 109.428 33.7522L65.4969 61.2005C63.1506 62.6665 60.2394 60.4454 61.0335 57.7952L68.742 32.0691C68.9103 31.5074 68.9103 30.9086 68.742 30.3469L61.0335 4.62076C60.2394 1.9706 63.1506 -0.250493 65.4969 1.21545L109.428 28.6638Z" fill="#D9D9D9"/>
</svg>
