<svg width="116" height="69" viewBox="0 0 116 69" fill="none" xmlns="http://www.w3.org/2000/svg">
<path d="M50.678 31.6638C52.5585 32.8387 52.5585 35.5773 50.678 36.7522L6.74687 64.2005C4.40062 65.6665 1.48938 63.4454 2.28347 60.7952L9.99199 35.0691C10.1603 34.5074 10.1603 33.9086 9.99199 33.3469L2.28347 7.62078C1.48938 4.97062 4.40062 2.74952 6.74687 4.21547L50.678 31.6638Z" fill="#D9D9D9"/>
<path d="M111.428 31.6638C113.308 32.8387 113.308 35.5773 111.428 36.7522L67.4969 64.2005C65.1506 65.6665 62.2394 63.4454 63.0335 60.7952L70.742 35.0691C70.9103 34.5074 70.9103 33.9086 70.742 33.3469L63.0335 7.62078C62.2394 4.97062 65.1506 2.74952 67.4969 4.21547L111.428 31.6638Z" fill="#D9D9D9"/>
<path d="M50.678 31.6638C52.5585 32.8387 52.5585 35.5773 50.678 36.7522L6.74687 64.2005C4.40062 65.6665 1.48938 63.4454 2.28347 60.7952L9.99199 35.0691C10.1603 34.5074 10.1603 33.9086 9.99199 33.3469L2.28347 7.62078C1.48938 4.97062 4.40062 2.74952 6.74687 4.21547L50.678 31.6638Z" fill="#D9D9D9"/>
<path d="M111.428 31.6638C113.308 32.8387 113.308 35.5773 111.428 36.7522L67.4969 64.2005C65.1506 65.6665 62.2394 63.4454 63.0335 60.7952L70.742 35.0691C70.9103 34.5074 70.9103 33.9086 70.742 33.3469L63.0335 7.62078C62.2394 4.97062 65.1506 2.74952 67.4969 4.21547L111.428 31.6638Z" fill="#D9D9D9"/>
</svg>
