<svg width="512" height="512" viewBox="0 0 512 512" fill="none" xmlns="http://www.w3.org/2000/svg">
<rect width="512" height="512" rx="30" fill="#D9D9D9"/>
<rect x="84" y="20" width="343" height="393" rx="30" fill="#BD2727"/>
<path d="M84 50C84 33.4314 97.4315 20 114 20H161V491H114C97.4315 491 84 477.569 84 461V50Z" fill="#775E5E"/>
<path d="M270.716 161.909V271H257.932L198.486 185.347H197.42V271H184.21V161.909H196.994L256.653 247.776H257.719V161.909H270.716ZM297.15 271V161.909H334.01C342.533 161.909 349.529 163.365 354.998 166.277C360.466 169.153 364.515 173.113 367.143 178.156C369.77 183.198 371.084 188.933 371.084 195.361C371.084 201.788 369.77 207.488 367.143 212.46C364.515 217.431 360.484 221.337 355.051 224.178C349.618 226.984 342.675 228.386 334.224 228.386H304.394V216.455H333.797C339.621 216.455 344.309 215.602 347.86 213.898C351.447 212.193 354.039 209.778 355.637 206.653C357.27 203.493 358.087 199.729 358.087 195.361C358.087 190.993 357.27 187.175 355.637 183.908C354.003 180.641 351.393 178.12 347.807 176.344C344.22 174.533 339.479 173.628 333.584 173.628H310.36V271H297.15ZM348.499 221.994L375.346 271H360.005L333.584 221.994H348.499Z" fill="white"/>
<path d="M161 413H427V461C427 477.569 413.569 491 397 491H161V413Z" fill="#775E5E"/>
<path d="M105 443C105 426.431 118.431 413 135 413H427V445C427 461.569 413.569 475 397 475H135C118.431 475 105 461.569 105 445V443Z" fill="#D9D9D9"/>
</svg>
