<svg width="108" height="108" viewBox="0 0 108 108" fill="none" xmlns="http://www.w3.org/2000/svg">
<g filter="url(#filter0_d_36_15)">
<path d="M4 14C4 6.26801 10.268 0 18 0H90C97.732 0 104 6.26801 104 14V86C104 93.732 97.732 100 90 100H18C10.268 100 4 93.732 4 86V14Z" fill="#3F3F3F"/>
<path d="M48 25C48 21.6863 50.6863 19 54 19C57.3137 19 60 21.6863 60 25V75C60 78.3137 57.3137 81 54 81C50.6863 81 48 78.3137 48 75V25Z" fill="#D9D9D9"/>
<path d="M29 56C25.6863 56 23 53.3137 23 50C23 46.6863 25.6863 44 29 44H79C82.3137 44 85 46.6863 85 50C85 53.3137 82.3137 56 79 56H29Z" fill="#D9D9D9"/>
<path d="M48 44H60V56H48V44Z" fill="#D9D9D9"/>
</g>
<defs>
<filter id="filter0_d_36_15" x="0" y="0" width="108" height="108" filterUnits="userSpaceOnUse" color-interpolation-filters="sRGB">
<feFlood flood-opacity="0" result="BackgroundImageFix"/>
<feColorMatrix in="SourceAlpha" type="matrix" values="0 0 0 0 0 0 0 0 0 0 0 0 0 0 0 0 0 0 127 0" result="hardAlpha"/>
<feOffset dy="4"/>
<feGaussianBlur stdDeviation="2"/>
<feComposite in2="hardAlpha" operator="out"/>
<feColorMatrix type="matrix" values="0 0 0 0 0 0 0 0 0 0 0 0 0 0 0 0 0 0 0.25 0"/>
<feBlend mode="normal" in2="BackgroundImageFix" result="effect1_dropShadow_36_15"/>
<feBlend mode="normal" in="SourceGraphic" in2="effect1_dropShadow_36_15" result="shape"/>
</filter>
</defs>
</svg>
