<svg width="116" height="69" viewBox="0 0 116 69" fill="none" xmlns="http://www.w3.org/2000/svg">
<path d="M4.07203 36.7522C2.19154 35.5773 2.19155 32.8387 4.07203 31.6638L48.0031 4.21547C50.3494 2.74953 53.2606 4.97062 52.4665 7.62078L44.758 33.3469C44.5897 33.9086 44.5897 34.5074 44.758 35.0691L52.4665 60.7952C53.2606 63.4454 50.3494 65.6665 48.0031 64.2005L4.07203 36.7522Z" fill="#D9D9D9"/>
<path d="M64.822 36.7522C62.9415 35.5773 62.9415 32.8387 64.822 31.6638L108.753 4.21547C111.099 2.74953 114.011 4.97062 113.217 7.62078L105.508 33.3469C105.34 33.9086 105.34 34.5074 105.508 35.0691L113.217 60.7952C114.011 63.4454 111.099 65.6665 108.753 64.2005L64.822 36.7522Z" fill="#D9D9D9"/>
<path d="M4.07203 36.7522C2.19154 35.5773 2.19155 32.8387 4.07203 31.6638L48.0031 4.21547C50.3494 2.74953 53.2606 4.97062 52.4665 7.62078L44.758 33.3469C44.5897 33.9086 44.5897 34.5074 44.758 35.0691L52.4665 60.7952C53.2606 63.4454 50.3494 65.6665 48.0031 64.2005L4.07203 36.7522Z" fill="#D9D9D9"/>
<path d="M64.822 36.7522C62.9415 35.5773 62.9415 32.8387 64.822 31.6638L108.753 4.21547C111.099 2.74953 114.011 4.97062 113.217 7.62078L105.508 33.3469C105.34 33.9086 105.34 34.5074 105.508 35.0691L113.217 60.7952C114.011 63.4454 111.099 65.6665 108.753 64.2005L64.822 36.7522Z" fill="#D9D9D9"/>
</svg>
