<svg width="112" height="62" viewBox="0 0 112 62" fill="none" xmlns="http://www.w3.org/2000/svg">
<path d="M2.07203 33.7522C0.191545 32.5773 0.191548 29.8387 2.07203 28.6638L46.0031 1.21545C48.3494 -0.250494 51.2606 1.9706 50.4665 4.62076L42.758 30.3469C42.5897 30.9086 42.5897 31.5074 42.758 32.0691L50.4665 57.7952C51.2606 60.4454 48.3494 62.6665 46.0031 61.2005L2.07203 33.7522Z" fill="#D9D9D9"/>
<path d="M62.822 33.7522C60.9415 32.5773 60.9415 29.8387 62.822 28.6638L106.753 1.21545C109.099 -0.250494 112.011 1.9706 111.217 4.62076L103.508 30.3469C103.34 30.9086 103.34 31.5074 103.508 32.0691L111.217 57.7952C112.011 60.4454 109.099 62.6665 106.753 61.2005L62.822 33.7522Z" fill="#D9D9D9"/>
<path d="M2.07203 33.7522C0.191545 32.5773 0.191548 29.8387 2.07203 28.6638L46.0031 1.21545C48.3494 -0.250494 51.2606 1.9706 50.4665 4.62076L42.758 30.3469C42.5897 30.9086 42.5897 31.5074 42.758 32.0691L50.4665 57.7952C51.2606 60.4454 48.3494 62.6665 46.0031 61.2005L2.07203 33.7522Z" fill="#D9D9D9"/>
<path d="M62.822 33.7522C60.9415 32.5773 60.9415 29.8387 62.822 28.6638L106.753 1.21545C109.099 -0.250494 112.011 1.9706 111.217 4.62076L103.508 30.3469C103.34 30.9086 103.34 31.5074 103.508 32.0691L111.217 57.7952C112.011 60.4454 109.099 62.6665 106.753 61.2005L62.822 33.7522Z" fill="#D9D9D9"/>
</svg>
