<svg width="430" height="430" viewBox="0 0 430 430" fill="none" xmlns="http://www.w3.org/2000/svg">
<rect width="430" height="430" fill="#272B30"/>
<rect x="336.522" y="314.269" width="30.5034" height="28.9327" fill="#D9D9D9"/>
<rect x="62.9749" y="23.9443" width="304.05" height="319.258" rx="30" fill="#BD2727"/>
<path d="M62.9749 53.9443C62.9749 37.3758 76.4063 23.9443 92.9749 23.9443H130.87V406.056H92.9748C76.4063 406.056 62.9749 392.624 62.9749 376.056V53.9443Z" fill="#775E5E"/>
<path d="M240.425 145.656V254.747H227.641L168.195 169.094H167.13V254.747H153.92V145.656H166.704L226.363 231.523H227.428V145.656H240.425ZM266.859 254.747V145.656H303.72C312.243 145.656 319.238 147.112 324.707 150.024C330.176 152.9 334.224 156.86 336.852 161.903C339.48 166.945 340.794 172.68 340.794 179.108C340.794 185.535 339.48 191.235 336.852 196.207C334.224 201.178 330.194 205.084 324.76 207.925C319.327 210.731 312.385 212.133 303.933 212.133H274.103V200.202H303.507C309.331 200.202 314.018 199.349 317.569 197.645C321.156 195.94 323.748 193.525 325.346 190.4C326.98 187.24 327.797 183.476 327.797 179.108C327.797 174.74 326.98 170.922 325.346 167.655C323.713 164.388 321.103 161.867 317.516 160.092C313.929 158.28 309.189 157.375 303.294 157.375H280.069V254.747H266.859ZM318.209 205.741L345.055 254.747H329.714L303.294 205.741H318.209Z" fill="white"/>
<path d="M130.87 343.202H367.025V376.055C367.025 392.624 353.594 406.055 337.025 406.055H130.87V343.202Z" fill="#775E5E"/>
<path d="M81.6704 368.144C81.6704 354.369 92.8373 343.202 106.612 343.202H367.025V363.086C367.025 379.654 353.594 393.086 337.025 393.086H106.612C92.8373 393.086 81.6704 381.919 81.6704 368.144V368.144Z" fill="#D9D9D9"/>
<path d="M82.6545 361.16H362.105V361.16C358.593 369.617 350.336 375.128 341.179 375.128H82.6545V361.16Z" fill="#ACACAC"/>
<ellipse cx="83.1464" cy="368.144" rx="1.47597" ry="6.98376" fill="#ACACAC"/>
<path d="M357.677 356.172C360.61 353.198 363.047 349.773 364.894 346.027L367.025 341.706L366.041 349.687L365.463 352.913C365.193 354.418 364.791 355.895 364.26 357.329V357.329C363.808 358.55 363.247 359.729 362.584 360.85L362.105 361.659L361.395 362.739C361.314 362.863 361.121 362.805 361.121 362.657V362.657L339.474 361.16L347.336 359.684C350.932 359.009 354.414 357.826 357.677 356.172V356.172V356.172Z" fill="#ACACAC"/>
</svg>
