<svg width="437" height="431" viewBox="0 0 437 431" fill="none" xmlns="http://www.w3.org/2000/svg">
<rect width="437" height="431" fill="#202020"/>
<rect x="342" y="315" width="31" height="29" fill="#D9D9D9"/>
<rect x="64" y="24" width="309" height="320" rx="30" fill="#BD2727"/>
<path d="M64 54C64 37.4315 77.4315 24 94 24H133V407H94C77.4315 407 64 393.569 64 377V54Z" fill="#775E5E"/>
<path d="M242.716 145.909V255H229.932L170.486 169.347H169.42V255H156.21V145.909H168.994L228.653 231.776H229.719V145.909H242.716ZM269.15 255V145.909H306.01C314.533 145.909 321.529 147.365 326.998 150.277C332.466 153.153 336.515 157.113 339.143 162.156C341.77 167.198 343.084 172.933 343.084 179.361C343.084 185.788 341.77 191.488 339.143 196.46C336.515 201.431 332.484 205.337 327.051 208.178C321.618 210.984 314.675 212.386 306.224 212.386H276.394V200.455H305.797C311.621 200.455 316.309 199.602 319.86 197.898C323.447 196.193 326.039 193.778 327.637 190.653C329.27 187.493 330.087 183.729 330.087 179.361C330.087 174.993 329.27 171.175 327.637 167.908C326.003 164.641 323.393 162.12 319.807 160.344C316.22 158.533 311.479 157.628 305.584 157.628H282.36V255H269.15ZM320.499 205.994L347.346 255H332.005L305.584 205.994H320.499Z" fill="white"/>
<path d="M133 344H373V377C373 393.569 359.569 407 343 407H133V344Z" fill="#775E5E"/>
<path d="M83 369C83 355.193 94.1929 344 108 344H373V364C373 380.569 359.569 394 343 394H108C94.1929 394 83 382.807 83 369V369Z" fill="#D9D9D9"/>
<path d="M84 362H368V362C364.427 370.484 356.118 376 346.913 376H84V362Z" fill="#ACACAC"/>
<ellipse cx="84.5" cy="369" rx="1.5" ry="7" fill="#ACACAC"/>
<path d="M363.5 357C366.481 354.019 368.961 350.578 370.846 346.808L373 342.5L372 350.5L371.413 353.728C371.138 355.239 370.729 356.724 370.189 358.163V358.163C369.731 359.385 369.162 360.563 368.49 361.683L368 362.5L367.277 363.584C367.194 363.709 367 363.65 367 363.5V363.5L345 362L353.003 360.518C356.65 359.843 360.183 358.658 363.5 357V357V357Z" fill="#ACACAC"/>
</svg>
