<svg width="500" height="500" viewBox="0 0 500 500" fill="none" xmlns="http://www.w3.org/2000/svg">
<circle cx="250" cy="250" r="250" fill="#272B30"/>
<rect x="371.521" y="349.269" width="30.5034" height="28.9327" fill="#D9D9D9"/>
<rect x="97.9746" y="58.9443" width="304.05" height="319.258" rx="30" fill="#BD2727"/>
<path d="M97.9746 88.9443C97.9746 72.3758 111.406 58.9443 127.975 58.9443H165.869V441.056H127.975C111.406 441.056 97.9746 427.624 97.9746 411.056V88.9443Z" fill="#775E5E"/>
<path d="M275.425 180.656V289.747H262.641L203.195 204.094H202.129V289.747H188.919V180.656H201.703L261.362 266.523H262.428V180.656H275.425ZM301.859 289.747V180.656H338.719C347.242 180.656 354.238 182.112 359.707 185.024C365.175 187.9 369.224 191.86 371.852 196.903C374.479 201.945 375.793 207.68 375.793 214.108C375.793 220.535 374.479 226.235 371.852 231.207C369.224 236.178 365.193 240.084 359.76 242.925C354.327 245.731 347.384 247.133 338.933 247.133H309.103V235.202H338.506C344.33 235.202 349.018 234.349 352.569 232.645C356.156 230.94 358.748 228.525 360.346 225.4C361.979 222.24 362.796 218.476 362.796 214.108C362.796 209.74 361.979 205.922 360.346 202.655C358.712 199.388 356.102 196.867 352.516 195.092C348.929 193.28 344.188 192.375 338.293 192.375H315.069V289.747H301.859ZM353.208 240.741L380.055 289.747H364.714L338.293 240.741H353.208Z" fill="white"/>
<path d="M165.869 378.202H402.025V411.055C402.025 427.624 388.593 441.055 372.025 441.055H165.869V378.202Z" fill="#775E5E"/>
<path d="M116.67 403.144C116.67 389.369 127.837 378.202 141.612 378.202H402.025V398.086C402.025 414.654 388.594 428.086 372.025 428.086H141.612C127.837 428.086 116.67 416.919 116.67 403.144V403.144Z" fill="#D9D9D9"/>
<path d="M117.654 396.16H397.105V396.16C393.593 404.617 385.336 410.128 376.179 410.128H117.654V396.16Z" fill="#ACACAC"/>
<ellipse cx="118.146" cy="403.144" rx="1.47597" ry="6.98376" fill="#ACACAC"/>
<path d="M392.677 391.172C395.61 388.198 398.047 384.773 399.894 381.027L402.025 376.706L401.041 384.687L400.463 387.913C400.193 389.418 399.791 390.895 399.26 392.329V392.329C398.808 393.55 398.247 394.729 397.584 395.85L397.105 396.659L396.395 397.739C396.314 397.863 396.121 397.805 396.121 397.657V397.657L374.474 396.16L382.336 394.684C385.932 394.009 389.414 392.826 392.677 391.172V391.172V391.172Z" fill="#ACACAC"/>
</svg>
