<svg width="100" height="100" viewBox="0 0 100 100" fill="none" xmlns="http://www.w3.org/2000/svg">
<rect width="100" height="100" rx="14" fill="#3F3F3F"/>
<path d="M46.1783 22.3673C47.3398 18.6085 52.6602 18.6085 53.8217 22.3672L58.5716 37.7382C59.0895 39.4143 60.639 40.5573 62.3933 40.5573H78.1748C82.0009 40.5573 83.6435 45.4132 80.6031 47.7359L67.4959 57.7489C66.1637 58.7666 65.6075 60.5069 66.1024 62.1085L71.0265 78.0433C72.1763 81.7642 67.8714 84.7671 64.7766 82.4029L52.4282 72.9696C50.9946 71.8744 49.0054 71.8744 47.5718 72.9696L35.2234 82.4029C32.1287 84.7671 27.8237 81.7641 28.9735 78.0433L33.8976 62.1085C34.3925 60.5069 33.8363 58.7666 32.5041 57.7489L19.3969 47.7359C16.3565 45.4132 17.999 40.5573 21.8252 40.5573H37.6067C39.3609 40.5573 40.9105 39.4143 41.4284 37.7382L46.1783 22.3673Z" fill="#D9D9D9"/>
<path d="M48.0892 29.1836C48.6699 27.3043 51.3301 27.3043 51.9108 29.1836L56.1743 42.9806C56.4333 43.8186 57.2081 44.3901 58.0852 44.3901H72.0874C74.0005 44.3901 74.8218 46.8181 73.3015 47.9794L61.8037 56.763C61.1376 57.2718 60.8595 58.142 61.1069 58.9428L65.4575 73.0217C66.0324 74.8821 63.8799 76.3835 62.3326 75.2014L51.2141 66.7077C50.4973 66.1601 49.5027 66.1601 48.7859 66.7077L37.6674 75.2014C36.1201 76.3835 33.9676 74.8821 34.5425 73.0216L38.8931 58.9428C39.1405 58.142 38.8624 57.2718 38.1963 56.763L26.6985 47.9794C25.1782 46.8181 25.9995 44.3901 27.9126 44.3901H41.9148C42.7919 44.3901 43.5667 43.8186 43.8257 42.9806L48.0892 29.1836Z" fill="#C32929"/>
</svg>
