<svg width="100" height="100" viewBox="0 0 100 100" fill="none" xmlns="http://www.w3.org/2000/svg">
<path d="M100 86C100 93.732 93.732 100 86 100L14 100C6.26801 100 0 93.732 0 86L0 14C0 6.26801 6.26801 0 14 0L86 0C93.732 0 100 6.26801 100 14L100 86Z" fill="#3F3F3F"/>
<rect x="56" y="81" width="12" height="62" transform="rotate(-180 56 81)" fill="#D9D9D9"/>
<path d="M52.5523 15.5252C51.1854 14.1584 48.9694 14.1584 47.6025 15.5252L25.3287 37.7991C23.9618 39.1659 23.9618 41.382 25.3287 42.7489C26.6955 44.1157 28.9116 44.1157 30.2784 42.7489L50.0774 22.9499L69.8764 42.7489C71.2432 44.1157 73.4593 44.1157 74.8261 42.7489C76.193 41.382 76.193 39.1659 74.8261 37.7991L52.5523 15.5252ZM53.5774 19.0001V18.0001H46.5774V19.0001H53.5774Z" fill="#D9D9D9"/>
<path d="M47.4477 84.4748C48.8146 85.8416 51.0306 85.8416 52.3975 84.4748L74.6713 62.2009C76.0382 60.8341 76.0382 58.618 74.6713 57.2511C73.3045 55.8843 71.0884 55.8843 69.7216 57.2511L49.9226 77.0501L30.1236 57.2511C28.7568 55.8843 26.5407 55.8843 25.1739 57.2511C23.807 58.618 23.807 60.8341 25.1739 62.2009L47.4477 84.4748ZM46.4226 80.9999V81.9999H53.4226V80.9999H46.4226Z" fill="#D9D9D9"/>
</svg>
